# xmcd
#
# Track frame offsets: 
#        150
#        14468
#        29178
#        47365
#        61433
#        76767
#        95102
#        109921
#        123504
#        141315
#        158935
#        175302
#        192833
#        204297
#        220358
#
# Disc length: 3072 seconds
#
# Revision: 5
# Processed by: cddbd v1.5.2PL0 Copyright (c) Steve Scherf et al.
# Submitted via: ExactAudioCopy v0.99pb5
#
DISCID=da0bfe0f
DTITLE=Various Artist - Classic Country - TL 626-30 - 90s Stars - CD 1
DYEAR=2002
DGENRE=Country
TTITLE0=Kenny Rogers - If you want to find love
TTITLE1=Martina McBride - Safe in the arms of love
TTITLE2=Mark Wills - Wish you were here
TTITLE3=Tracy Lawrence - If the world had a front porch
TTITLE4=Deana Carter - We danced anyway
TTITLE5=Keith Whitley - It ain't nothin'
TTITLE6=Don Williams - Back in my younger days
TTITLE7=Doug Stone - Warning labels
TTITLE8=Billy Joe Royal - Till I can't take it anymore
TTITLE9=Wilkinsons - 26 cents
TTITLE10=Joe Diffie - Pickup man
TTITLE11=Pam Tillis - Spilled perfume
TTITLE12=Tracy Byrd - Holdin' heaven
TTITLE13=Alabama - In pictures
TTITLE14=Clay Walker - If I could make a living
EXTD=
EXTT0=
EXTT1=
EXTT2=
EXTT3=
EXTT4=
EXTT5=
EXTT6=
EXTT7=
EXTT8=
EXTT9=
EXTT10=
EXTT11=
EXTT12=
EXTT13=
EXTT14=
PLAYORDER=
